<svg width="15" height="15" viewBox="0 0 15 15" fill="none" xmlns="http://www.w3.org/2000/svg">
<g clip-path="url(#clip0_4_2)">
<path d="M14.7654 13.8997L10.8411 9.99137C11.8297 8.78557 12.3154 7.24757 12.1977 5.69529C12.0801 4.14299 11.3681 2.69504 10.209 1.65068C9.0499 0.60633 7.53222 0.0453991 5.96965 0.0838214C4.40708 0.122245 2.91906 0.75708 1.8131 1.85713C0.707164 2.95719 0.0678223 4.43837 0.0272344 5.99454C-0.0133535 7.55072 0.547907 9.06297 1.59502 10.2187C2.64215 11.3744 4.09506 12.0854 5.65351 12.2046C7.21197 12.3237 8.75683 11.842 9.96883 10.859L13.8931 14.7673C13.9504 14.8244 14.0183 14.8696 14.0932 14.9005C14.168 14.9314 14.2483 14.9472 14.3292 14.9472C14.4103 14.9472 14.4904 14.9314 14.5652 14.9005C14.6401 14.8696 14.7081 14.8244 14.7654 14.7673C14.8227 14.7103 14.8681 14.6426 14.8991 14.568C14.9301 14.4935 14.946 14.4137 14.946 14.3329C14.946 14.2523 14.9301 14.1724 14.8991 14.0979C14.8681 14.0233 14.8227 13.9556 14.7654 13.8986V13.8997ZM1.28729 6.16679C1.28751 5.21294 1.57171 4.28062 2.10395 3.48764C2.63617 2.69467 3.39256 2.07668 4.27742 1.71181C5.16231 1.34695 6.13595 1.25161 7.07522 1.43782C8.01449 1.62404 8.87724 2.08346 9.55438 2.75799C10.2315 3.43254 10.6926 4.29189 10.8794 5.22742C11.0662 6.16294 10.9702 7.13259 10.6037 8.01379C10.237 8.89499 9.61638 9.64817 8.82004 10.178C8.02372 10.7079 7.08751 10.9908 6.12981 10.9908C4.84565 10.9896 3.61447 10.4809 2.70654 9.57649C1.79862 8.67204 1.28818 7.44572 1.28729 6.16679Z" fill="black"/>
</g>
<defs>
<clipPath id="clip0_4_2">
<rect width="15" height="15" fill="white"/>
</clipPath>
</defs>
</svg>
